# xmcd
# Track frame offsets:
# 150
# 22243
# 43317
# 65350
# 90021
# 111854
# 133993
# 140786
# 161109
# 183285
# 192299
# 198965
# 212429
# 229623
# 247833
#
# Disc length: 3479 seconds
# Revision: 0
# Processed by: cddbd v1.5.2PL0 Copyright (c) Steve Scherf et al.
# Submitted via: VisiTrax 2.10.3.257 - For more info visit www.synapsa.com
#
DISCID=d30d950f
DTITLE=Paulis Sanchez - Seguro en Ti
DYEAR=2007
DGENRE=Gospel Latino
TTITLE0=Canta al Señor/ Shout to the Lord
TTITLE1=Quien - Who
TTITLE2=Seguro en Ti - Safe in You
TTITLE3=Nueva Creación - New Creation
TTITLE4=En Ti Jehova - In You Jehovah
TTITLE5=Gracias - Thank You
TTITLE6=Gracias Fiesta - Thank You Party
TTITLE7=Eres Mi Gozo - Your Are My Joy
TTITLE8=Solo a Ti - To You Alone
TTITLE9=Cuan Hermoso - How Beautiful
TTITLE10=Señor Te Exaltamos - Jesus We Worship
TTITLE11=Reine Siempre Aqui - Always Reign Here
TTITLE12=Todo Eres Para Mi - Everything To Me
TTITLE13=Me Tienes - You Got Me
TTITLE14=En Jesucristo, Mártir de Paz - Blessed Assurance, Jesus is Mine
EXTD=CAJA CD_02
EXTT0=
EXTT1=
EXTT2=
EXTT3=
EXTT4=
EXTT5=
EXTT6=
EXTT7=
EXTT8=
EXTT9=
EXTT10=
EXTT11=
EXTT12=
EXTT13=
EXTT14=
PLAYORDER=
